<?xml version="1.0" encoding="UTF-8" standalone="no"?>
<!-- Created with Inkscape (http://www.inkscape.org/) -->

<svg
   width="32"
   height="32"
   viewBox="0 0 161.35779 179.91108"
   version="1.1"
   id="svg1"
   xml:space="preserve"
   xmlns="http://www.w3.org/2000/svg"
   xmlns:svg="http://www.w3.org/2000/svg"><defs
     id="defs1" /><g
     id="layer1"
     transform="translate(-49.56528,-57.150007)"><path
       style="fill:#1A8CD8"
       d="M 124.35417,234.20713 C 107.71156,225.53774 96.16219,217.06464 85.195834,205.47895 61.33064,180.26596 49.56528,142.52373 49.56528,91.179311 v -9.284092 l 1.852084,-0.191883 c 1.018645,-0.105536 3.280833,-0.285643 5.027083,-0.400237 11.120323,-0.729749 27.911387,-4.430088 41.38731,-9.120749 8.648903,-3.010487 19.163553,-7.753457 27.722893,-12.505302 2.50354,-1.389873 4.70233,-2.527041 4.88622,-2.527041 0.18389,0 2.97742,1.424516 6.20785,3.165592 21.84629,11.774313 44.80322,18.892979 67.786,21.019615 3.39548,0.314191 6.25298,0.650777 6.35,0.747969 0.31448,0.315059 0.0476,21.634157 -0.34816,27.807097 -1.46397,22.83736 -5.99828,44.50474 -12.75155,60.93373 -11.35072,27.61344 -30.94998,47.86573 -61.0522,63.0864 -3.43321,1.73594 -6.37008,3.15375 -6.52639,3.15068 -0.15631,-0.003 -2.74482,-1.28734 -5.75225,-2.85396 z M 162.25705,187.231 c 0.93866,-0.53194 1.68367,-1.35783 2.29306,-2.54199 l 0.90267,-1.75405 0.10648,-23.11679 c 0.0586,-12.71423 0.008,-23.79817 -0.11204,-24.63097 -0.45269,-3.13674 -2.92293,-4.65942 -7.55899,-4.65942 h -2.13684 v -7.3519 c 0,-6.14564 -0.11338,-7.79522 -0.69103,-10.05381 -1.28948,-5.04179 -4.10002,-9.67615 -8.1321,-13.409135 -2.532,-2.344189 -4.42921,-3.463332 -7.97257,-4.702925 -2.58429,-0.904077 -3.18738,-0.974508 -8.42791,-0.984243 -4.93512,-0.0092 -5.97694,0.09272 -8.29028,0.810764 -6.52831,2.026342 -11.37303,6.272799 -14.70492,12.889059 -2.1673,4.30368 -2.58119,6.74499 -2.58119,15.22497 v 7.47936 l -3.21066,0.18306 c -3.431471,0.19565 -4.31678,0.58274 -5.763376,2.51992 -0.715506,0.95815 -0.728908,1.36185 -0.822812,24.78436 -0.06158,15.35922 0.03207,24.28393 0.263833,25.14464 0.505235,1.8763 1.737932,3.55045 3.17751,4.31545 1.169338,0.62138 2.716035,0.65292 31.749995,0.6474 l 30.52078,-0.006 z m -37.13193,-12.84724 c -1.05273,-0.42115 -1.08536,-1.80613 -0.18034,-7.65457 l 0.90344,-5.83828 -1.15022,-0.96784 c -2.79531,-2.35211 -3.67931,-7.41053 -1.91409,-10.95286 3.08616,-6.19311 12.19252,-6.18462 15.38038,0.0143 1.70248,3.31057 1.05484,7.39997 -1.64806,10.40624 l -1.59992,1.7795 0.89254,5.62681 c 1.06964,6.74333 1.05676,6.25257 0.18698,7.12234 -0.64021,0.64022 -1.15478,0.70298 -5.55625,0.67771 -2.66788,-0.0153 -5.05939,-0.11134 -5.31446,-0.21339 z m -11.70706,-51.70473 c 0.17258,-7.68058 0.19764,-7.89526 1.16223,-9.95528 3.09153,-6.60238 8.51959,-10.06541 15.77683,-10.06541 5.25933,0 9.47849,1.88009 12.83831,5.72087 3.43607,3.92795 4.42694,7.55542 4.43594,16.23954 l 0.006,5.90903 -17.19792,5.6e-4 -17.19791,5.5e-4 z"
       id="path1" /></g></svg>
